<svg xmlns="http&#58;//www.w3.org/2000/svg" viewBox="0 0 760 520" role="img" aria-labelledby="title desc">
  <title id="title">课程资料使用与交流</title>
  <desc id="desc">分类使用、正式交流、识别聚合风险、遇疑请示。四个环节为：资料分类、交流渠道、汇编风险、判断边界。</desc>
  <defs>
    <style>.dark{fill:#18354c}.light{fill:#fff}.title{font:700 27px "Microsoft YaHei","PingFang SC",sans-serif}.sub{font:16px "Microsoft YaHei","PingFang SC",sans-serif}.head{font:700 18px "Microsoft YaHei","PingFang SC",sans-serif}.body{font:15px "Microsoft YaHei","PingFang SC",sans-serif}.card{fill:#fff;stroke:#bdd0dc;stroke-width:1.5}.line{stroke:#2c6e9e;stroke-width:3;fill:none}.desktop{display:block}.mobile{display:none}@media (max-width:500px){.desktop{display:none}.mobile{display:block}}</style>
    <marker id="arrow" markerWidth="8" markerHeight="8" refX="7" refY="4" orient="auto"><path d="M0 0l8 4-8 4z" fill="#2c6e9e"/></marker>
  </defs>
  <rect width="760" height="520" rx="24" fill="#f4f8fb"/>
  <g class="desktop">
    <rect x="24" y="22" width="712" height="72" rx="16" fill="#163f60"/>
    <text x="48" y="63" class="title light">课程资料使用与交流</text>
    <text x="48" y="84" class="sub light">分类使用、正式交流、识别聚合风险、遇疑请示</text>
    <path d="M186 244h36M366 244h36M546 244h36" class="line" marker-end="url(#arrow)"/>
    <g transform="translate(36 142)">
      <rect width="146" height="204" rx="18" class="card"/>
      <circle cx="73" cy="46" r="28" fill="#2c6e9e"/>
      <text x="65" y="55" class="light" font-size="26" font-weight="700">1</text>
      <text x="73" y="104" class="head dark" text-anchor="middle">资料分类</text>
      <path d="M28 124h90" stroke="#d8e4eb" stroke-width="2"/>
      <text x="73" y="157" class="body dark" text-anchor="middle" data-role="body">内部资料限工作</text>
      <text x="73" y="183" class="body dark" text-anchor="middle" data-role="body">审核对外版本</text>
    </g>
    <g transform="translate(216 142)">
      <rect width="146" height="204" rx="18" class="card"/>
      <circle cx="73" cy="46" r="28" fill="#2f7d73"/>
      <text x="65" y="55" class="light" font-size="26" font-weight="700">2</text>
      <text x="73" y="104" class="head dark" text-anchor="middle">交流渠道</text>
      <path d="M28 124h90" stroke="#d8e4eb" stroke-width="2"/>
      <text x="73" y="157" class="body dark" text-anchor="middle" data-role="body">警营课堂讲评</text>
      <text x="73" y="183" class="body dark" text-anchor="middle" data-role="body">跨范围正式调阅</text>
    </g>
    <g transform="translate(396 142)">
      <rect width="146" height="204" rx="18" class="card"/>
      <circle cx="73" cy="46" r="28" fill="#d98b2b"/>
      <text x="65" y="55" class="dark" font-size="26" font-weight="700">3</text>
      <text x="73" y="104" class="head dark" text-anchor="middle">汇编风险</text>
      <path d="M28 124h90" stroke="#d8e4eb" stroke-width="2"/>
      <text x="73" y="157" class="body dark" text-anchor="middle" data-role="body">编组装备场地</text>
      <text x="73" y="183" class="body dark" text-anchor="middle" data-role="body">聚合可能敏感</text>
    </g>
    <g transform="translate(576 142)">
      <rect width="146" height="204" rx="18" class="card"/>
      <circle cx="73" cy="46" r="28" fill="#6a5b8c"/>
      <text x="65" y="55" class="light" font-size="26" font-weight="700">4</text>
      <text x="73" y="104" class="head dark" text-anchor="middle">判断边界</text>
      <path d="M28 124h90" stroke="#d8e4eb" stroke-width="2"/>
      <text x="73" y="157" class="body dark" text-anchor="middle" data-role="body">不上传不转发</text>
      <text x="73" y="183" class="body dark" text-anchor="middle" data-role="body">把握不准先请示</text>
    </g>
    <rect x="36" y="382" width="688" height="74" rx="16" fill="#e8f1f6" stroke="#bdd0dc"/>
    <circle cx="74" cy="419" r="19" fill="#bf4a45"/>
    <text x="68" y="427" class="light" font-size="25" font-weight="700">!</text>
    <text x="108" y="425" class="head dark">内外版本不得混用，本站学习不能替代正式培训</text>
    <text x="36" y="488" class="sub dark">本站原创学习图解 · 依据本页正文梳理</text>
  </g>
  <g class="mobile">
    <rect width="760" height="520" rx="24" fill="#f4f8fb"/>
    <rect x="24" y="22" width="712" height="68" rx="16" fill="#163f60"/>
    <text x="48" y="65" class="light" font-size="30" font-weight="700">课程资料使用与交流</text>
    <g transform="translate(28 112)">
      <rect width="342" height="142" rx="18" class="card"/>
      <circle cx="46" cy="45" r="27" fill="#2c6e9e"/>
      <text x="38" y="54" class="light" font-size="27" font-weight="700">1</text>
      <text x="88" y="52" class="dark" font-size="28" font-weight="700">资料分类</text>
      <text x="24" y="104" class="dark" font-size="25">内部资料限工作</text>
      <text x="24" y="133" class="dark" font-size="25">审核对外版本</text>
    </g>
    <g transform="translate(390 112)">
      <rect width="342" height="142" rx="18" class="card"/>
      <circle cx="46" cy="45" r="27" fill="#2f7d73"/>
      <text x="38" y="54" class="light" font-size="27" font-weight="700">2</text>
      <text x="88" y="52" class="dark" font-size="28" font-weight="700">交流渠道</text>
      <text x="24" y="104" class="dark" font-size="25">警营课堂讲评</text>
      <text x="24" y="133" class="dark" font-size="25">跨范围正式调阅</text>
    </g>
    <g transform="translate(28 276)">
      <rect width="342" height="142" rx="18" class="card"/>
      <circle cx="46" cy="45" r="27" fill="#d98b2b"/>
      <text x="38" y="54" class="dark" font-size="27" font-weight="700">3</text>
      <text x="88" y="52" class="dark" font-size="28" font-weight="700">汇编风险</text>
      <text x="24" y="104" class="dark" font-size="25">编组装备场地</text>
      <text x="24" y="133" class="dark" font-size="25">聚合可能敏感</text>
    </g>
    <g transform="translate(390 276)">
      <rect width="342" height="142" rx="18" class="card"/>
      <circle cx="46" cy="45" r="27" fill="#6a5b8c"/>
      <text x="38" y="54" class="light" font-size="27" font-weight="700">4</text>
      <text x="88" y="52" class="dark" font-size="28" font-weight="700">判断边界</text>
      <text x="24" y="104" class="dark" font-size="25">不上传不转发</text>
      <text x="24" y="133" class="dark" font-size="25">把握不准先请示</text>
    </g>
    <rect x="28" y="440" width="704" height="52" rx="14" fill="#e8f1f6"/>
    <text x="48" y="474" class="dark" font-size="25" font-weight="700">内外版本不得混用，本站学习不能替代正式培训</text>
  </g>
</svg>
